<?xml version="1.0" encoding="UTF-8" standalone="no"?><!DOCTYPE svg PUBLIC "-//W3C//DTD SVG 1.1//EN" "http://www.w3.org/Graphics/SVG/1.1/DTD/svg11.dtd"><svg width="100%" height="100%" viewBox="0 0 2550 3300" version="1.1" xmlns="http://www.w3.org/2000/svg" xmlns:xlink="http://www.w3.org/1999/xlink" xml:space="preserve" xmlns:serif="http://www.serif.com/" style="fill-rule:evenodd;clip-rule:evenodd;stroke-miterlimit:10;"><g id="Layer-4" serif:id="Layer 4"><rect x="-0" y="0" width="2549.32" height="3300" style="fill:#322d29;"/><rect x="-0" y="0" width="2549.32" height="3300" style="fill:none;stroke:#322d29;stroke-width:4.17px;"/><path d="M1057.58,1959.48c0,0 -369.851,29.096 -415.564,-54.037c0,-0 -108.05,-70.667 -66.49,-211.996c-0,-0 232.717,-54.038 282.583,-120.546c-0,0 178.694,-257.721 506.989,-274.346c0,0 602.294,-195.366 1184.22,74.821l-0,1926.62c-0,0 -515.163,-118.433 -602.431,-313.8c-0,0 -128.824,-278.504 -257.648,-187.054c-128.828,91.45 -239.057,224.467 -414.581,195.367c-175.524,-29.096 -183.834,-133.017 -266.945,-49.88c-0,0 -60.438,42.959 -58.181,103.917c0,0 -45.713,-216.15 99.736,-261.875c0,0 -204.308,41.567 -255.911,133.017c0,-0 35.662,-195.367 251.754,-211.996c-0,-0 -214.172,-0.138 -386.476,228.621c-0,-0 -12.468,-274.346 415.568,-340.854c0,-0 205.599,-41.567 200.455,-120.546c-5.14,-78.979 -125.654,-320.071 -100.723,-436.459c-0,0 -99.732,-41.566 -116.357,-78.979" style="fill:#c36828;fill-rule:nonzero;"/><path d="M1057.58,1959.48c0,0 120.514,-16.625 145.449,24.942l-29.092,54.037c-0,0 -112.199,-33.254 -116.357,-78.979" style="fill:#5d4638;fill-rule:nonzero;"/><path d="M2549.32,2969.57c-0,0 -552.561,-207.837 -598.274,-353.325c-0,0 -41.556,91.45 -261.809,182.896l162.073,29.1l95.579,157.954c-0,0 45.433,211.929 602.431,313.804l-0,-330.429Z" style="fill:#5d4638;fill-rule:nonzero;"/><path d="M1826.2,1230.73l137.305,121.858c-0,0 -31.371,68.2 -159.787,100.875c-51.053,12.988 -117.443,20.367 -203.3,15.609c-301.815,-16.721 -235.324,-170.521 -235.324,-170.521c-0,-0 332.111,-114.859 461.106,-67.821" style="fill:#905d39;fill-rule:nonzero;"/><path d="M2021.64,1236.72c0,-0 220.295,29.966 307.564,108.25c-0,-0 -257.648,178.046 -610.879,65.812l24.931,-191.35l278.384,17.288Z" style="fill:#905d39;fill-rule:nonzero;"/><path d="M2250.25,1419.1c-0,0 145.449,109.196 124.671,233.338c-0,-0 -157.916,82.979 -386.476,-2.438c-0,0 -157.916,-97.883 -128.828,-230.9c-0,0 212.626,-121.429 390.633,0" style="fill:#905d39;fill-rule:nonzero;"/><path d="M1852.08,1434.8c-0,-0 145.448,109.195 124.67,233.337c0,0 -157.916,82.975 -386.476,-2.437c0,-0 -157.916,-97.884 -128.828,-230.9c0,-0 212.627,-121.43 390.634,-0" style="fill:#905d39;fill-rule:nonzero;"/><path d="M1586.68,1274.69c0,-0 181.698,-7.658 244.235,101.567c0,-0 -69.648,164.262 -300.599,242.983c0,-0 -184.18,24.312 -245.905,-97.046c-0,0 87.631,-228.679 302.269,-247.504" style="fill:#905d39;fill-rule:nonzero;"/><path d="M1824.67,1634.86c-0,-0 177.765,131.241 152.372,280.446c-0,-0 -193.003,99.729 -472.349,-2.93c-0,0 -193.003,-117.645 -157.45,-277.516c0,-0 259.868,-145.942 477.427,-0" style="fill:#905d39;fill-rule:nonzero;"/><path d="M1682.45,1743.88c0,-0 177.765,131.241 152.372,280.445c0,0 -193.002,99.73 -472.349,-2.929c0,0 -193.002,-117.646 -157.449,-277.516c-0,-0 259.868,-145.942 477.426,-0" style="fill:#905d39;fill-rule:nonzero;"/><path d="M1670.15,1848.43c0,-0 145.449,109.196 124.671,233.337c0,0 -157.916,82.975 -386.476,-2.437c0,-0 -157.916,-97.884 -128.828,-230.9c0,-0 212.627,-121.429 390.633,-0" style="fill:#905d39;fill-rule:nonzero;"/><path d="M2083.45,1848.43c-0,-0 145.449,109.196 124.671,233.337c-0,0 -157.916,82.975 -386.476,-2.437c-0,-0 -157.916,-97.884 -128.828,-230.9c-0,-0 212.626,-121.429 390.633,-0" style="fill:#905d39;fill-rule:nonzero;"/><path d="M2228.89,1623.96c-0,0 145.448,109.196 124.671,233.338c-0,-0 -157.917,82.975 -386.476,-2.438c-0,0 -157.917,-97.883 -128.829,-230.9c0,0 212.627,-121.429 390.634,0" style="fill:#905d39;fill-rule:nonzero;"/><path d="M1985.33,2076.93c-0,-0 179.902,142.867 154.2,305.292c0,-0 -195.323,108.558 -478.026,-3.192c-0,-0 -195.323,-128.067 -159.341,-302.1c-0,-0 262.992,-158.871 483.167,-0" style="fill:#905d39;fill-rule:nonzero;"/><path d="M2119.03,2531.5c-0,-0 10.968,208.625 -113.683,281.766c0,0 -189.42,-78.037 -282.57,-342.387c0,-0 -30.117,-211.279 108.475,-283.633c0,-0 263.597,97.925 287.778,344.254" style="fill:#905d39;fill-rule:nonzero;"/><path d="M2022.25,2338.27c0,-0 167.043,125.408 143.179,267.979c-0,0 -181.36,95.296 -443.853,-2.8c0,0 -181.36,-112.417 -147.952,-265.179c0,-0 244.189,-139.454 448.626,-0" style="fill:#905d39;fill-rule:nonzero;"/><path d="M1501.55,2140.57c0,0 110.275,130.2 68.423,245.65c0,0 -157.358,51.963 -346.736,-69.962c-0,-0 -123.584,-121.53 -72.614,-244.038c-0,0 213.689,-79.279 350.927,68.35" style="fill:#905d39;fill-rule:nonzero;"/><path d="M1525.82,2024.33c0,-0 121.122,120.166 89.418,238.804c-0,-0 -152.272,65.392 -351.49,-39.688c0,0 -133.635,-110.375 -93.45,-236.837c0,-0 206.025,-97.475 355.522,37.721" style="fill:#905d39;fill-rule:nonzero;"/><path d="M1631.54,2318.09c-0,-0 167.043,125.408 143.178,267.979c0,-0 -181.36,95.296 -443.852,-2.8c-0,-0 -181.36,-112.417 -147.952,-265.179c-0,-0 244.189,-139.454 448.626,-0" style="fill:#905d39;fill-rule:nonzero;"/><path d="M1850.79,2632.45c-0,0 90.409,124.192 42.901,219.279c-0,0 -148.04,27.888 -311.446,-97.683c-0,0 -103.273,-118.146 -46.863,-218.342c0,0 201.738,-45.383 315.408,96.746" style="fill:#905d39;fill-rule:nonzero;"/><path d="M2218.26,2726.95c-0,0 -4.903,153.55 -100.781,199.409c-0,-0 -133.956,-68.942 -185.809,-268.425c-0,-0 -8.96,-156.679 97.082,-201.096c0,-0 187.071,88.117 189.508,270.112" style="fill:#905d39;fill-rule:nonzero;"/><path d="M2428.82,2825.78c-0,0 -4.903,153.55 -100.781,199.409c-0,-0 -133.956,-68.942 -185.809,-268.425c-0,-0 -8.96,-156.679 97.082,-201.096c0,-0 187.071,88.117 189.508,270.112" style="fill:#905d39;fill-rule:nonzero;"/><path d="M2549.97,2876.77c-0,0 4.103,147.225 -81.529,185.892c0,-0 -127.112,-73.746 -186.008,-268.279c-0,-0 -17.037,-151.013 78.029,-187.725c-0,-0 177.053,95.146 189.508,270.112" style="fill:#905d39;fill-rule:nonzero;"/><path d="M1435.97,2479.84c0,0 102.344,76.834 87.723,164.184c-0,-0 -111.117,58.387 -271.94,-1.713c-0,0 -111.112,-68.875 -90.643,-162.471c0,0 149.606,-85.441 274.86,0" style="fill:#905d39;fill-rule:nonzero;"/><path d="M1572.04,2654.22c-0,-0 102.343,76.833 87.722,164.183c0,0 -111.116,58.388 -271.94,-1.712c0,-0 -111.112,-68.875 -90.642,-162.471c-0,-0 149.606,-85.442 274.86,-0" style="fill:#905d39;fill-rule:nonzero;"/><path d="M1638.64,2668.29c0,0 94.033,86.813 70.639,172.229c0,0 -116.456,46.825 -270.365,-29.266c0,-0 -103.564,-79.784 -73.722,-170.821c0,-0 157.496,-69.838 273.448,27.858" style="fill:#905d39;fill-rule:nonzero;"/><path d="M1365.1,1298.55c-0,0 257.652,4.159 353.23,112.234c0,-0 -207.436,48.15 -324.142,74.82c-0,0 211.939,13.1 295.054,122.942c0,0 -145.448,151.404 -324.142,55.8c-0,0 30.129,31.521 192.565,141.329c0,0 7.831,57.734 -321.389,62.35c-0,0 236.87,22.529 265.962,88.167c0,-0 -74.805,90.575 -299.207,28.225l-145.449,-141.329l-62.334,-95.609l-103.893,-16.625l-78.958,-33.254l-80.866,-51.429l126.579,-73.275c0,0 187.004,-274.346 506.99,-274.346" style="fill:#905d39;fill-rule:nonzero;"/><path d="M1991.22,1234.35c0,0 401.435,19.4 558.105,139.021l0,1596.2c0,-0 -439.437,-164.438 -525.551,-266.271l-32.554,-1468.95Z" style="fill:#905d39;fill-rule:nonzero;"/><path d="M1194.72,1621.24c-0,-0 47.095,-2.875 60.95,31.204c0,-0 -34.607,46.567 -91.413,36.162c0,0 -19.403,-13.17 -33.949,-17.325c-0,0 21.469,-43.275 64.412,-50.041Z" style="fill:#322d29;fill-rule:nonzero;stroke:#322d29;stroke-width:4.17px;"/><path d="M1220.52,1642.54c-0,0 -25.173,-13.087 -45.109,-3.483c-0,-0 21.315,-19.25 45.109,3.483" style="fill:#b5b5b5;fill-rule:nonzero;"/><path d="M1156.24,1650.53c0,0 7.773,-9.85 13.771,-8.662c0,-0 -9.464,3.491 -13.771,8.662" style="fill:#b5b5b5;fill-rule:nonzero;"/><path d="M1239.55,1646.87c-0,-0 -12.189,-7.921 -13.026,-4.204c0,-0 3.008,14.637 13.026,4.204" style="fill:#b5b5b5;fill-rule:nonzero;"/><path d="M1275.95,1662.96c0,-0 -33.378,41.108 -137.646,41.337c-0,0 91.438,18.242 137.646,-41.337" style="fill:#3f4040;fill-rule:nonzero;"/><path d="M1134.37,1689.03c-0,0 -1.237,-6.429 -5.482,-5.55c-4.24,0.875 2.408,-13.041 2.408,-13.041c-0,-0 -21.803,10.383 3.074,18.591" style="fill:#3f4040;fill-rule:nonzero;"/><path d="M1270.04,1623.24c-0,-0 -12.126,-18.367 -28.747,-15.596c0,0 25.635,-6.221 28.747,15.596" style="fill:#3f4040;fill-rule:nonzero;"/><path d="M619.935,1681.98c0,-0 11.689,111.229 -49.953,107.767c0,-0 -11.08,-58.196 5.54,-96.3l44.413,-11.467Z" style="fill:#5d4638;fill-rule:nonzero;"/><path d="M580.163,1789.19c-0,-0 32.649,-21.859 39.168,-60.65c0,-0 -1.745,54.783 -39.168,60.65" style="fill:#322d29;fill-rule:nonzero;"/></g><g id="Layer-5" serif:id="Layer 5"></g></svg>