<?xml version="1.0" encoding="UTF-8" standalone="no"?><!DOCTYPE svg PUBLIC "-//W3C//DTD SVG 1.1//EN" "http://www.w3.org/Graphics/SVG/1.1/DTD/svg11.dtd"><svg width="100%" height="100%" viewBox="0 0 266 52" version="1.1" xmlns="http://www.w3.org/2000/svg" xmlns:xlink="http://www.w3.org/1999/xlink" xml:space="preserve" xmlns:serif="http://www.serif.com/" style="fill-rule:evenodd;clip-rule:evenodd;stroke-linecap:round;stroke-linejoin:round;stroke-miterlimit:1.5;"><g><g transform="matrix(0.999504,-0.0314874,0.0314874,0.999504,2.55388,-7.87994)"><g transform="matrix(25.5075,0,0,25.5075,42.6124,40.5209)"></g><text x="-2.842px" y="40.521px" style="font-family:'adelia';font-size:25.507px;">B</text></g><g transform="matrix(0.999504,-0.0314874,0.0314874,0.999504,-0.166459,-1.05176)"><g transform="matrix(25.5075,0,0,25.5075,123.3,35.771)"></g><text x="31.907px" y="35.771px" style="font-family:'adelia';font-size:25.507px;">erling</text></g></g><path d="M129.938,3.649l-2.618,-0.014l-0.232,43.876l2.618,0.014l0.232,-43.876Z" style="stroke:#ebebeb;stroke-width:0.18px;"/><g transform="matrix(11.3404,0,0,11.3404,265.448,40.445)"></g><text x="130.991px" y="40.445px" style="font-family:'Impact', sans-serif;font-stretch:condensed;font-size:11.34px;">Crafting Y<tspan x="175.55px 181.347px " y="40.445px 40.445px ">ou</tspan>r Digital Success</text><g transform="matrix(20.67,0,0,20.67,261.5,27.2881)"></g><text x="135.119px" y="27.288px" style="font-family:'Impact', sans-serif;font-stretch:condensed;font-size:20.67px;">.Web Solutions</text></svg>