<?xml version="1.0" encoding="utf-8"?>
<!-- Generator: Adobe Illustrator 25.3.1, SVG Export Plug-In . SVG Version: 6.00 Build 0)  -->
<svg xmlns="http://www.w3.org/2000/svg" xmlns:xlink="http://www.w3.org/1999/xlink" x="0px" y="0px"
	 viewBox="0 0 522.6 334.9" style="enable-background:new 0 0 522.6 334.9;" xml:space="preserve">
<style type="text/css">
	.st0{fill:#DC8A2E;}
	.st1{fill:#1C3063;}
</style>
<path class="st0" d="M262.7,130.7c4.3,0,7.1-3.4,7.1-7.6v0c0-4.1-2.9-7.7-7-7.7c-4.4,0-7.2,3.4-7.2,7.7
	C255.5,127.3,258.4,130.7,262.7,130.7 M258.7,118.7h0.5c0.2,0.8,0.6,1.2,2.8,1.3h1.6c2.2-0.1,2.6-0.5,2.8-1.3h0.5c0,1.1,0,2.7,0,4.4
	c0,1.9,0,3.7,0,4.4h-0.6c-0.1-0.9-0.6-1.2-2.8-1.4H262c-2.2,0.1-2.7,0.5-2.8,1.4h-0.6c0-0.7,0-2.5,0-4.4
	C258.7,121.4,258.7,119.7,258.7,118.7 M240.7,123.1L240.7,123.1c-0.1-2.5-1.7-4.8-4-5.6c0,0.9,0,2,0,3.3v3.9c0,1.6,0,2.9,0,4.1
	C239.1,127.9,240.7,125.6,240.7,123.1 M230.7,124.7v-3.9c0-1.3,0-2.4,0-3.4c-3.1,0.9-5,4.2-4.1,7.3c0.6,2,2.1,3.5,4.1,4.1
	C230.7,127.6,230.7,126.3,230.7,124.7 M307.4,58.4h-40.6v-3.2h5.6c0.7,0,1.3-0.6,1.3-1.3c0,0,0,0,0,0v-9.1c0-0.7-0.6-1.3-1.3-1.3
	c0,0,0,0,0,0h-1.5c11.2-6,15.5-19.9,9.5-31.2s-19.9-15.5-31.2-9.5s-15.5,19.9-9.5,31.2c2.2,4.1,5.5,7.4,9.5,9.5h-1.5
	c-0.7,0-1.3,0.6-1.3,1.3c0,0,0,0,0,0v9.1c0,0.7,0.6,1.3,1.3,1.3c0,0,0,0,0,0h5.6v3.2H214c-0.7,0-1.3,0.6-1.3,1.3v121
	c0,0.7,0.6,1.3,1.3,1.3c0,0,0,0,0,0l37.6,0v4.6c0,0.5,0.4,0.9,0.9,0.9c0,0,0,0,0,0h0.4l4.6,21.9c0.1,0.4,0.4,0.7,0.9,0.7h2.8
	c0.4,0,0.8-0.3,0.9-0.7l4.6-21.9h0.6c0.5,0,0.9-0.4,0.9-0.9c0,0,0,0,0,0V182l39.4,0c0.7,0,1.3-0.6,1.3-1.3v-121
	C308.7,59,308.1,58.4,307.4,58.4 M292.6,83.1c0.5-2.1,2.5-4.1,3.5-5c0.2-0.2,0.5-0.2,0.7,0c0,0,0.1,0.1,0.1,0.1
	c0.8,2,1.1,4.2,0.9,6.3c-0.4,2-1.5,3.7-3.1,5c-0.2,0.2-0.5,0.1-0.7-0.1c0,0,0,0,0,0C292.6,87.8,292.1,85.4,292.6,83.1 M295.3,103.3
	c0.1,0.3-0.1,0.5-0.4,0.6c0,0,0,0,0,0c-2.2,0.5-4.6,0-6.4-1.4c-1.7-1.3-2.7-4-3.1-5.3c-0.1-0.3,0.1-0.6,0.3-0.6c0.1,0,0.1,0,0.2,0
	c2.2,0.1,4.3,0.7,6.1,1.8C293.7,99.6,294.9,101.3,295.3,103.3 M283.4,74.3c0.1-0.3,0.4-0.5,0.7-0.4c0.1,0,0.1,0,0.2,0.1
	c2.1,1.3,3.8,3,5.1,5.1c1.4,2.3,0.9,5.3,0.6,6.5c-0.1,0.3-0.4,0.5-0.7,0.4c0,0,0,0,0,0c-2.5-0.7-4.5-2.5-5.6-4.8
	C282.6,78.9,283.1,75.7,283.4,74.3 M280.8,88.2c2.1-0.4,4.3-0.3,6.4,0.3c1.9,0.7,3.4,2.2,4.3,4c0.1,0.2,0,0.5-0.2,0.7c0,0,0,0,0,0
	c-2.1,1-4.5,1.1-6.6,0.2c-2-0.9-3.6-3.3-4.2-4.4c-0.1-0.2-0.1-0.6,0.2-0.7C280.7,88.3,280.7,88.2,280.8,88.2 M246.6,22.9
	c0-7.5,6-13.5,13.5-13.5c7.5,0,13.5,6,13.5,13.5c0,4.8-2.6,9.3-6.8,11.7v-2.2c0-0.7-0.6-1.3-1.3-1.3c0,0,0,0,0,0h-10.7
	c-0.7,0-1.3,0.6-1.3,1.3c0,0,0,0,0,0v2.2C249.2,32.2,246.6,27.8,246.6,22.9 M245.1,76.4c2.5-0.2,5-1.7,6.9-4.5
	c3.1-4.5,5-6.6,9.7-7.2s10.2,1.1,11.4,5.8s-0.5,8.8,0.5,13.9s5.6,8.8,1.6,7.9s-7-1.5-10.5-4.5s-0.7-8.6-3.3-9.5s-2,2.3-6.6,2.5
	c-4.6,0.3-10.6-2.5-10.6-2.5C243.1,77.6,243.3,76.6,245.1,76.4 M247.7,89c-0.9-0.9-1-3.8-1-5.2c1.4,0.5,2.8,0.8,4.2,1
	c2.1,0.4,4.4,0,6.3-1c1.7-1.2,2.4-2.1,2.5-0.3c0.1,2,0.6,3.9,1.4,5.7c0.6,1,2.6,2,1.3,4.6c-1.3,2.6-3.6,6.6-5.6,7.5
	s-2.1,0.2-2.9-1.5c-0.4-0.8-0.6-1-0.8-1.1c-0.2-0.1-0.4-0.1-0.8-0.3c-1-0.5,0.4-1.3,0.1-1.3c-0.4,0.1-1.2,0.2-1.3-0.1
	c-0.1-0.3-0.1-0.6-0.2-1c-0.1-0.8-0.1-1-1.3-0.9c-1.9,0.2-2.4,0.2-1.7-2C248.7,90.4,248.5,89.9,247.7,89 M263.2,98
	c0.8-1.5,1.6-2.9,2.3-4.5c2.6,1.2,5.3,2.2,8.1,2.8c-0.9,1.6-2.1,3.1-3.5,4.3c-1.2,1.3-2.6,2.5-4.1,3.5l-3.9-4.4L263.2,98z
	 M262.9,110.1c7.5,0,13.2,5.2,13.2,12.7v0c0,7.6-5.8,13.2-13.6,13.2c-7.5,0-13.4-5.6-13.4-12.8C249.1,115.5,255.1,110.1,262.9,110.1
	 M231.6,79c1.3-2.1,3-3.8,5.1-5.1c0.3-0.2,0.6-0.1,0.8,0.2c0,0.1,0.1,0.1,0.1,0.2c0.3,1.4,0.8,4.6-0.2,6.8c-1.1,2.4-3.1,4.1-5.6,4.8
	c-0.3,0.1-0.6-0.1-0.7-0.4c0,0,0,0,0,0C230.7,84.3,230.2,81.3,231.6,79 M229.4,92.5c0.9-1.8,2.4-3.2,4.3-4c2.1-0.6,4.3-0.7,6.4-0.3
	c0.3,0.1,0.5,0.3,0.4,0.6c0,0.1,0,0.1-0.1,0.2c-0.7,1.1-2.3,3.5-4.2,4.4c-2.1,0.9-4.5,0.9-6.6-0.2C229.4,93.1,229.3,92.8,229.4,92.5
	C229.4,92.5,229.4,92.5,229.4,92.5 M234.9,96.6c0.3,0,0.5,0.2,0.5,0.5c0,0.1,0,0.1,0,0.2c-0.4,1.2-1.4,3.9-3.1,5.3
	c-1.8,1.4-4.2,1.9-6.4,1.4c-0.3-0.1-0.4-0.3-0.4-0.6c0,0,0,0,0,0c0.5-2,1.6-3.7,3.3-4.9C230.7,97.3,232.8,96.7,234.9,96.6 M224,78.4
	c0.1-0.3,0.4-0.4,0.7-0.3c0.1,0,0.1,0.1,0.1,0.1c1,0.9,3,2.9,3.5,5c0.5,2.2,0,4.6-1.4,6.4c-0.2,0.2-0.5,0.3-0.7,0.1c0,0,0,0,0,0
	c-1.6-1.2-2.7-3-3.1-5C222.9,82.5,223.2,80.4,224,78.4 M218.7,88.8c0-0.3,0.3-0.5,0.6-0.4c0.1,0,0.1,0,0.2,0.1
	c1.2,0.6,3.6,2.1,4.6,4c1,2.1,1.1,4.5,0.2,6.6c-0.1,0.3-0.4,0.4-0.7,0.3c0,0,0,0,0,0c-1.8-0.8-3.3-2.3-4.2-4.1
	C218.7,93.1,218.5,90.9,218.7,88.8 M220,123.2c0-5.6,4.3-9.7,10.4-10.9c-0.2-0.9-0.6-1.2-1.2-1.3v-0.6c0.7,0,2.5,0,4.4,0
	c1.7,0,3.3,0,4.4,0v0.5c-0.6,0.1-0.9,0.4-1.1,1.3c5.9,1.1,10.1,5.1,10.1,10.6v0c0,5.4-4.1,9.7-10,10.9c0.2,0.9,0.6,1.1,1.2,1.3v0.5
	c-1.2,0-2.8,0-4.5,0c-2.1,0-3.8,0-4.5,0V135c0.6-0.1,1-0.3,1.2-1.2C224.4,132.8,220,128.5,220,123.2 M242.1,153.2
	c-0.1,0.3-0.4,0.4-0.7,0.3c0,0,0,0,0,0c-1-0.5-3.4-1.9-4.3-4.2c-0.7-2.1-1-4.3-0.6-6.6c0-0.3,0.3-0.5,0.6-0.4c0.1,0,0.1,0,0.2,0.1
	c1.2,0.6,3.7,2.2,4.7,4.1C243,148.5,243,151,242.1,153.2 M224.4,144.1c-0.1-0.3,0-0.6,0.2-0.7c0.1,0,0.1,0,0.2-0.1
	c1.3-0.2,4.3-0.3,6.2,0.7c2.1,1.1,3.5,3.2,4,5.5c0.1,0.3-0.1,0.6-0.4,0.6c0,0,0,0,0,0c-1.1,0.2-3.9,0.4-5.9-1.1
	C226.9,147.8,225.4,146.1,224.4,144.1 M229.2,153.9c-0.2-0.2-0.1-0.6,0.1-0.7c0,0,0.1-0.1,0.2-0.1c1.3-0.4,4.2-1,6.3-0.2
	c2.2,0.8,4,2.6,4.8,4.8c0.1,0.3-0.1,0.6-0.3,0.7c0,0,0,0,0,0c-1.1,0.3-3.8,1-6-0.1C232.2,157.2,230.5,155.8,229.2,153.9
	 M236.7,163.2c-0.2-0.2-0.2-0.5,0-0.7c0,0,0.1-0.1,0.1-0.1c1.2-0.6,3.9-1.7,6.1-1.4c0.4,0.1,0.9,0.2,1.3,0.3c0.1,0,0.1,0,0.2,0
	c0.5,0.1,0.9,0.4,1.3,0.6c0.7,0.4,1.3,0.9,1.8,1.4c0.6,0.5,1.2,0.9,1.9,1.1c1.9,0.6,1.8-0.7,0.6-1.5c-1.2-0.8-2.3-1.7-3.2-2.9
	c0-0.1-0.1-0.1-0.1-0.2c-0.2-0.3-0.4-0.6-0.6-0.9c-1-2-1.5-4.2-1.5-6.4c0-0.3,0.2-0.5,0.5-0.5c0.1,0,0.1,0,0.2,0
	c1.3,0.5,4,1.6,5.2,3.5c1.1,1.6,1.6,3.5,1.3,5.4c0,0,0,0.1,0,0.1c0,1.2-0.3,2.1,2.1,3.9c0,0,0,0,0.1,0c0,0,1.3,1.1,1.7,1.4
	c0.4,0.3,0.5,0.8,0.3,1.1c-0.2,0.3-1,0.3-1.3,0.4c0,0-1,0.2-1,0.2c-0.6,0.1-1.2,0-1.7-0.3c-0.9-0.5-1.9-0.9-3-1
	c-3.1-0.4-4,0.2-6.7-0.5C240.2,165.9,238.3,164.7,236.7,163.2 M277.6,174.2c0,1.1-0.6,1.9-4.2,1.2c-1.6-0.3-4.1-0.9-6.9-1.6
	c-0.3-0.1-0.5-0.4-0.4-0.7c0-0.2,0.2-0.3,0.3-0.4c0.8-0.4,1.6-0.8,2.2-1.1c0.5-0.3,1.1-0.4,1.7-0.2c0.6,0.1,1.3,0.3,1.9,0.4
	C278,173,277.6,173.1,277.6,174.2 M284.2,163.2c-1.6,1.6-3.5,2.7-5.7,3.3c-2.7,0.7-3.6,0.1-6.7,0.5s-3,1.4-7.7,3.6s-13,4.1-16.6,4.8
	c-3.7,0.7-4.2,0-4.2-1.2s-0.4-1.3,5.4-2.4s13.7-3.2,16.6-5.2s3.7-4.2,3.7-5.5l0,0c-0.2-1.9,0.2-3.8,1.3-5.4c1.2-1.8,4-3,5.2-3.5
	c0.3-0.1,0.6,0,0.7,0.3c0,0.1,0,0.1,0,0.2c0,2.2-0.5,4.4-1.5,6.4c-0.2,0.3-0.4,0.6-0.6,0.9c0,0.1-0.1,0.1-0.1,0.2
	c-0.9,1.1-2,2.1-3.2,2.9c-1.2,0.7-1.4,2.1,0.5,1.5c0.7-0.3,1.4-0.6,1.9-1.1c0.5-0.6,1.1-1.1,1.8-1.4c0.4-0.3,0.8-0.5,1.3-0.6
	c0.1,0,0.1,0,0.2,0c0.4-0.2,0.9-0.3,1.3-0.3c2.2-0.4,4.9,0.8,6.1,1.4c0.3,0.1,0.4,0.4,0.2,0.7C284.3,163.1,284.3,163.1,284.2,163.2
	 M279,146.4c1-2,3.5-3.5,4.7-4.1c0.3-0.1,0.6,0,0.7,0.2c0,0.1,0,0.1,0.1,0.2c0.3,2.2,0.1,4.5-0.6,6.6c-0.9,2.4-3.3,3.8-4.3,4.2
	c-0.3,0.1-0.6,0-0.7-0.2c0,0,0,0,0,0C277.9,151,277.9,148.5,279,146.4 M291.7,153.9c-1.3,1.8-3,3.3-5,4.3c-2.2,1.1-5,0.5-6,0.1
	c-0.3-0.1-0.4-0.4-0.3-0.7c0,0,0,0,0,0c0.8-2.2,2.5-4,4.8-4.8c2.1-0.8,5-0.1,6.3,0.2c0.3,0.1,0.4,0.4,0.4,0.6
	C291.8,153.8,291.7,153.9,291.7,153.9 M296.5,144.1c-1,2-2.5,3.7-4.3,5c-2,1.5-4.8,1.2-6,1.1c-0.3,0-0.5-0.3-0.4-0.6c0,0,0,0,0,0
	c0.4-2.3,1.9-4.4,4-5.5c1.9-1.1,4.9-0.9,6.2-0.7c0.3,0,0.5,0.3,0.5,0.6C296.5,144,296.5,144,296.5,144.1 M301.4,135.6
	c-1.3,0-3,0-4.8,0c-1.5,0-3.2,0-5,0v-0.5c1.1-0.1-0.1-1.6-2.9-5.3l-4.1-5.3l-0.1,0v2.4c0,6.9,0,8,1.5,8.2v0.5c-1.3,0-2.7,0-4.4,0
	c-1.6,0-3.9,0-4.6,0V135c1.5-0.2,1.5-1.3,1.5-10.4v-3.9c0-8.5,0-9.5-1.4-9.7v-0.6c0.9,0,2.5,0,4.4,0c1.6,0,3.2,0,4.4,0v0.5
	c-1.3,0.2-1.4,1.3-1.4,7.9v1.7h0.1l3.1-3.9c3.6-4.3,4.2-5.5,3.1-5.7v-0.5c1.4,0,3.1,0,4.6,0c1.5,0,3.3,0,4.6,0v0.5
	c-1.1,0.1-1.9,1.3-6.1,6l-4.4,5l5.9,7.1c3.8,4.6,4.7,5.7,5.8,5.8L301.4,135.6z M301.5,95.1c-0.9,1.8-2.3,3.3-4.2,4.1
	c-0.3,0.1-0.6,0-0.7-0.2c0,0,0,0,0,0c-0.9-2.1-0.8-4.5,0.2-6.6c1-1.9,3.4-3.4,4.6-4c0.2-0.1,0.6,0,0.7,0.2c0,0.1,0,0.1,0.1,0.2
	C302.4,90.9,302.2,93.1,301.5,95.1"/>
<path class="st1" d="M64.1,255l0.3,0.1c0.5,0.1,0.9,0.4,1.1,0.7c0.3,0.6,0.4,1.2,0.3,1.8V268H41.2v-10.3c-0.1-0.6,0-1.3,0.3-1.9
	c0.3-0.4,0.7-0.6,1.1-0.7L43,255v-1.6h-9.1v1.6l0.3,0.1c0.5,0.1,0.9,0.4,1.2,0.8c0.3,0.6,0.4,1.2,0.3,1.8v29.5c0,0.7-0.1,1.4-0.3,2
	c-0.3,0.4-0.7,0.6-1.2,0.8l-0.3,0.1v1.7H43V290l-0.3-0.1c-0.5-0.1-0.9-0.4-1.1-0.7c-0.3-0.6-0.4-1.3-0.3-2v-14.9h24.7v14.9
	c0,0.7-0.1,1.4-0.3,2c-0.3,0.4-0.7,0.6-1.2,0.8L64,290v1.7h9.1V290l-0.3-0.1c-0.5-0.1-0.9-0.4-1.2-0.8c-0.3-0.6-0.4-1.3-0.3-2v-29.5
	c-0.1-0.6,0-1.3,0.3-1.8c0.3-0.4,0.7-0.6,1.2-0.7l0.3-0.1v-1.6h-9.1V255z M196.9,255l0.3,0.1c0.5,0.1,0.9,0.4,1.1,0.7
	c0.3,0.6,0.4,1.2,0.3,1.8V268H174v-10.3c-0.1-0.6,0-1.3,0.3-1.9c0.3-0.4,0.7-0.6,1.1-0.7l0.3-0.1v-1.6h-9.1v1.6l0.3,0.1
	c0.5,0.1,0.9,0.4,1.2,0.8c0.3,0.6,0.4,1.2,0.3,1.8v29.5c0,0.7-0.1,1.4-0.3,2c-0.3,0.4-0.7,0.6-1.2,0.8l-0.3,0.1v1.7h9.1V290
	l-0.3-0.1c-0.5-0.1-0.9-0.4-1.1-0.7c-0.3-0.6-0.4-1.3-0.3-2v-14.9h24.7v14.9c0,0.7-0.1,1.4-0.3,2c-0.3,0.4-0.7,0.6-1.2,0.8l-0.3,0.1
	v1.7h9.1V290l-0.3-0.1c-0.5-0.1-0.9-0.4-1.2-0.8c-0.3-0.6-0.4-1.3-0.3-2v-29.5c-0.1-0.6,0-1.3,0.3-1.8c0.3-0.4,0.7-0.6,1.2-0.7
	l0.3-0.1v-1.6h-9.1L196.9,255z M82.7,255l0.3,0.1c0.5,0.1,0.9,0.4,1.2,0.8c0.3,0.6,0.4,1.2,0.3,1.8v29.7c0,0.6-0.1,1.2-0.3,1.8
	c-0.3,0.4-0.7,0.6-1.2,0.8l-0.3,0.1v1.7h9.1v-1.7l-0.3-0.1c-0.4-0.1-0.8-0.4-1.1-0.7c-0.3-0.6-0.4-1.2-0.3-1.8v-29.7
	c-0.1-0.6,0-1.3,0.3-1.8c0.3-0.4,0.7-0.6,1.1-0.7l0.3-0.1v-1.6h-9.1V255z M122.1,253.3l-1.7,6.1l-0.1,0.3l1.6,0.6l0.2-0.4
	c0.4-0.8,1.1-1.5,1.9-1.9c1.5-0.4,3-0.6,4.6-0.5h8.6v29.7c0.1,0.6,0,1.2-0.3,1.8c-0.3,0.4-0.7,0.6-1.2,0.8l-0.3,0.1v1.7h9.1V290
	l-0.3-0.1c-0.5-0.1-0.9-0.4-1.1-0.7c-0.3-0.6-0.4-1.2-0.3-1.8v-29.7h9.6c1.3-0.1,2.6,0.1,3.8,0.5c0.7,0.4,1.2,1.1,1.5,1.8l0.2,0.4
	l1.5-0.8l-1.6-6.2H122.1z M285.7,259.9l0.2,0.4l1.5-0.8l-1.6-6.2h-35.6l-1.7,6.1l-0.1,0.3l1.6,0.6l0.2-0.4c0.4-0.8,1.1-1.5,1.9-1.9
	c1.5-0.4,3-0.6,4.6-0.5h8.6v29.7c0.1,0.6,0,1.2-0.3,1.8c-0.3,0.4-0.7,0.6-1.2,0.8l-0.3,0.1v1.7h9.1V290l-0.3-0.1
	c-0.5-0.1-0.9-0.4-1.1-0.7c-0.3-0.6-0.4-1.2-0.3-1.8v-29.7h9.6c1.3-0.1,2.6,0.1,3.8,0.5C284.9,258.5,285.4,259.2,285.7,259.9z
	 M240.5,285.7L240.5,285.7c-0.6,0.6-1.3,1-2.1,1.2c-1.3,0.3-2.7,0.4-4.1,0.4h-12.6v-14.2h12.5c1.1-0.1,2.2,0,3.3,0.4
	c0.4,0.2,0.7,0.6,0.8,1.1l0.1,0.4h1.6v-8.4h-1.7l-0.1,0.4c-0.1,0.6-0.4,1.1-0.9,1.5c-1,0.4-2.1,0.5-3.2,0.4h-12.5v-10.9H234
	c1.4,0,2.7,0.1,4,0.4c0.8,0.2,1.5,0.6,2,1.2l0.3,0.3l1.3-0.8l-2.1-5.5h-25.1v1.6l0.3,0.1c0.5,0.1,0.9,0.4,1.2,0.8
	c0.3,0.6,0.4,1.2,0.3,1.8v29.8c0.1,0.6,0,1.2-0.3,1.8c-0.3,0.4-0.7,0.6-1.2,0.8l-0.3,0.1v1.7h25l2.4-5.4l-1.2-1L240.5,285.7z
	 M319.7,289.4L319.7,289.4c-0.3-0.4-0.5-0.8-0.7-1.3l-15.4-34.5l-0.1-0.3h-2.4l-14.9,33.8l0,0c-0.4,1.1-1,2-1.8,2.8l-0.2,0.1v1.6
	h7.9V290l-0.4-0.1c-0.3,0-0.6-0.2-0.9-0.4c-0.2-0.2-0.2-0.5-0.2-0.7c0-0.3,0-0.6,0.1-0.8c0.1-0.3,0.2-0.7,0.3-1l3.2-7.3h15.2
	l3.1,7.2c0.1,0.3,0.2,0.7,0.3,1c0.1,0.3,0.1,0.6,0.1,0.9c0,0.3-0.1,0.5-0.2,0.7c-0.2,0.2-0.5,0.3-0.9,0.4l-0.4,0.1v1.8h9.3v-1.7
	l-0.3-0.1C320.2,289.8,319.9,289.6,319.7,289.4z M307.5,275.4H296l5.8-13.1L307.5,275.4z M418.3,289.4L418.3,289.4
	c-0.3-0.4-0.5-0.8-0.7-1.3l-15.4-34.5l-0.1-0.3h-2.4l-14.9,33.8l0,0c-0.4,1.1-1,2-1.8,2.8l-0.2,0.1v1.6h7.9V290l-0.4-0.1
	c-0.3,0-0.6-0.2-0.9-0.4c-0.2-0.2-0.2-0.5-0.2-0.7c0-0.3,0-0.6,0.1-0.8c0.1-0.3,0.2-0.7,0.3-1l3.2-7.3h15.2l3.1,7.2
	c0.1,0.3,0.2,0.7,0.3,1c0.1,0.3,0.1,0.6,0.1,0.9c0,0.3-0.1,0.5-0.2,0.7c-0.2,0.2-0.5,0.3-0.9,0.4L410,290v1.8h9.3v-1.7l-0.3-0.1
	C418.7,289.8,418.5,289.6,418.3,289.4z M406,275.4h-11.5l5.8-13.1L406,275.4z M522.3,289.9c-0.3-0.1-0.6-0.3-0.8-0.5h0
	c-0.3-0.4-0.5-0.8-0.7-1.3l-15.4-34.5l-0.1-0.3H503l-14.9,33.8l0,0c-0.4,1.1-1,2-1.8,2.8l-0.2,0.1v1.6h7.9V290l-0.4-0.1
	c-0.3,0-0.6-0.2-0.9-0.4c-0.2-0.2-0.2-0.5-0.2-0.7c0-0.3,0-0.6,0.1-0.8c0.1-0.3,0.2-0.7,0.3-1l3.2-7.3h15.2l3.1,7.2
	c0.1,0.3,0.2,0.7,0.3,1c0.1,0.3,0.1,0.6,0.1,0.9c0,0.3-0.1,0.5-0.2,0.7c-0.2,0.2-0.5,0.3-0.9,0.4l-0.4,0.1v1.8h9.3v-1.7L522.3,289.9
	z M509.3,275.4h-11.5l5.8-13.1L509.3,275.4z M374.5,288.9c-0.5-0.5-1-1.1-1.4-1.6L359,269.6l13-12.5c0.1-0.1,0.2-0.2,0.3-0.3
	c0.6-0.6,1.3-1.2,2.1-1.5l0.4-0.1l0-1.9h-9v1.6l0.3,0.1c0.1,0.1,0.3,0.1,0.4,0.3c0.1,0.1,0.2,0.3,0.2,0.4c0,0.2,0,0.3-0.1,0.5l0,0
	c-0.2,0.2-0.3,0.5-0.6,0.6l-10.5,10.3v-9.5c-0.1-0.6,0-1.3,0.3-1.9c0.3-0.4,0.7-0.6,1.1-0.7l0.3-0.1v-1.7h-8.8v1.6l0.3,0.1
	c0.5,0.1,0.9,0.4,1.2,0.8c0.3,0.6,0.4,1.2,0.3,1.8v29.7c0.1,0.6,0,1.2-0.3,1.8c-0.3,0.4-0.7,0.6-1.2,0.8l-0.3,0.1v1.7h8.8V290
	l-0.3-0.1c-0.5-0.1-0.9-0.4-1.1-0.7c-0.3-0.6-0.4-1.2-0.3-1.8v-14l12,15.6c0.1,0.1,0.2,0.2,0.2,0.4c0,0.1,0.1,0.2,0.1,0.3
	c0,0.1,0,0.2-0.1,0.2c0,0-0.1,0.1-0.3,0.1l-0.6,0l0,1.8h9.6V290l-0.4-0.1C375.4,289.7,374.9,289.3,374.5,288.9z M22.1,255.9
	c-2.3-1.7-6-2.5-10.8-2.5H0v1.7l0.3,0.1c0.4,0.1,0.8,0.4,1.1,0.7c0.3,0.5,0.4,1.1,0.3,1.7v29.8c0.1,0.6,0,1.2-0.3,1.8
	c-0.3,0.4-0.7,0.6-1.2,0.8L0,290v1.8h9.1V290l-0.3-0.1c-0.5-0.1-0.9-0.4-1.1-0.7c-0.3-0.6-0.4-1.2-0.3-1.8v-29.7h5.2
	c2.8,0,4.8,0.5,6.1,1.5c1.3,1.2,2,2.9,1.8,4.7c0.2,1.9-0.6,3.8-2,5c-2,1.6-4.6,1.8-8.6,2H9.6v2.9l0.5,0c6,0,9.6-0.6,11.9-2
	c2.4-1.5,3.7-4.2,3.7-7.9C25.7,260.2,24.5,257.6,22.1,255.9z M447.3,255.9c-2.3-1.7-6-2.5-10.8-2.5h-11.3v1.7l0.3,0.1
	c0.4,0.1,0.8,0.4,1.1,0.7c0.3,0.5,0.4,1.1,0.3,1.7v29.8c0.1,0.6,0,1.2-0.3,1.8c-0.3,0.4-0.7,0.6-1.2,0.8l-0.3,0.1v1.8h9.1V290
	l-0.3-0.1c-0.5-0.1-0.9-0.4-1.1-0.7c-0.3-0.6-0.4-1.2-0.3-1.8v-29.7h5.2c2.8,0,4.8,0.5,6.1,1.5c1.3,1.2,2,2.9,1.8,4.7
	c0.2,1.9-0.6,3.8-2,5c-2,1.6-4.6,1.8-8.6,2h-0.1v2.9l0.5,0c6,0,9.6-0.6,11.9-2c2.4-1.5,3.7-4.2,3.7-7.9
	C450.9,260.2,449.7,257.6,447.3,255.9z M481.9,255.9c-2.3-1.7-6-2.5-10.8-2.5h-11.3v1.7l0.3,0.1c0.4,0.1,0.8,0.4,1.1,0.7
	c0.3,0.5,0.4,1.1,0.3,1.7v29.8c0.1,0.6,0,1.2-0.3,1.8c-0.3,0.4-0.7,0.6-1.2,0.8l-0.3,0.1v1.8h9.1V290l-0.3-0.1
	c-0.5-0.1-0.9-0.4-1.1-0.7c-0.3-0.6-0.4-1.2-0.3-1.8v-29.7h5.2c2.8,0,4.8,0.5,6.1,1.5c1.3,1.2,2,2.9,1.8,4.7c0.2,1.9-0.6,3.8-2,5
	c-2,1.6-4.6,1.8-8.6,2h-0.1v2.9l0.5,0c6,0,9.6-0.6,11.9-2c2.4-1.5,3.7-4.2,3.7-7.9C485.5,260.2,484.2,257.6,481.9,255.9z
	 M111.9,334.5v-9.3h-11v9.3h-3.7v-21.1h3.7v8.6h11v-8.6h3.7v21.1H111.9z M143.3,324c0-4.4-2.8-7.6-7-7.6c-4.3,0-7,3.3-7,7.6
	c0,4.3,2.7,7.6,7,7.6C140.6,331.6,143.3,328.3,143.3,324 M125.5,324c0-6.3,4.5-10.9,10.8-10.9c6,0.1,10.9,5,10.8,11.1
	c-0.1,5.9-4.9,10.7-10.8,10.8C130,334.9,125.5,330.3,125.5,324 M171.8,334.5l-11-15.1v15.1H157v-21.1h3.8l10.8,14.6v-14.6h3.7v21.1
	H171.8z M203.1,324c0-4.4-2.8-7.6-7-7.6c-4.3,0-7,3.3-7,7.6c0,4.3,2.7,7.6,7,7.6C200.3,331.6,203.1,328.3,203.1,324 M185.3,324
	c0-6.3,4.5-10.9,10.8-10.9c6,0.1,10.9,5,10.8,11.1c-0.1,5.9-4.9,10.7-10.8,10.8C189.7,334.9,185.3,330.3,185.3,324 M229.2,320
	c0-1.8-1.4-3.3-3.3-3.3c-0.1,0-0.2,0-0.3,0h-5.1v6.7h5.1c1.8,0.2,3.4-1.2,3.6-3.1C229.2,320.2,229.2,320.1,229.2,320 M228.8,334.5
	l-4.7-7.9h-3.7v7.9h-3.7v-21.1h9.3c4.2,0,6.9,2.7,6.9,6.6c0.2,3.1-2,5.7-5,6.2l5.2,8.3H228.8z M256.2,331.5l2.1-2.9
	c1.7,1.9,4.1,2.9,6.7,2.9c3,0,4.2-1.5,4.2-2.9c0-4.4-12.3-1.7-12.3-9.4c0-3.5,3-6.2,7.7-6.2c2.9-0.1,5.8,1,7.9,3l-2.1,2.8
	c-1.6-1.6-3.9-2.5-6.1-2.4c-2.2,0-3.5,1.1-3.5,2.6c0,4,12.3,1.5,12.3,9.4c0,3.5-2.5,6.6-8.2,6.6C261.6,335,258.5,333.8,256.2,331.5
	 M299.6,324c0-4.4-2.8-7.6-7-7.6c-4.3,0-7,3.3-7,7.6c0,4.3,2.7,7.6,7,7.6C296.8,331.6,299.6,328.3,299.6,324 M281.8,324
	c0-6.3,4.5-10.9,10.8-10.9c6,0.1,10.9,5,10.8,11.1c-0.1,5.9-4.9,10.7-10.8,10.8C286.2,334.9,281.8,330.3,281.8,324 M312.4,324
	c0-6.5,4.8-10.9,11.1-10.9c3.5-0.1,6.7,1.7,8.5,4.7l-3.1,1.6c-1.1-1.9-3.1-3.1-5.3-3.1c-4.2,0-7.3,3.2-7.3,7.6
	c0,4.4,3.1,7.6,7.3,7.6c2.2,0,4.2-1.2,5.3-3.1l3.2,1.6c-1.8,3-5,4.8-8.5,4.8C317.2,334.9,312.4,330.4,312.4,324 M341.2,313.4h3.7
	v21.1h-3.7V313.4z M355.8,334.5v-21.1h14.5v3.3h-10.8v5.5H370v3.3h-10.6v5.9h10.8v3.3H355.8z M385.4,334.5v-17.9H379v-3.3h16.5v3.3
	h-6.4v17.9H385.4z M411,334.5v-8.8l-8.2-12.4h4.2l5.8,9l5.8-9h4.2l-8.2,12.4v8.8H411z"/>
</svg>
